<?xml version="1.0" standalone="no"?>
<!DOCTYPE svg PUBLIC "-//W3C//DTD SVG 20010904//EN"
 "http://www.w3.org/TR/2001/REC-SVG-20010904/DTD/svg10.dtd">
<svg version="1.0" xmlns="http://www.w3.org/2000/svg"
 width="109.000000pt" height="109.000000pt" viewBox="0 0 109.000000 109.000000"
 preserveAspectRatio="xMidYMid meet">
<metadata>
Created by potrace 1.14, written by Peter Selinger 2001-2017
</metadata>
<g transform="translate(0.000000,109.000000) scale(0.100000,-0.100000)"
fill="#000000" stroke="none">
<path d="M221 908 c-28 -15 -58 -60 -65 -100 -3 -21 4 -37 35 -71 41 -47 50
-86 25 -106 -7 -6 -44 -14 -80 -18 -93 -8 -107 -27 -105 -137 1 -45 -3 -99 -9
-121 -6 -22 -13 -72 -16 -111 l-6 -71 532 1 533 1 0 38 c0 20 3 37 8 37 16 0
6 20 -10 21 -14 0 -12 3 5 10 13 5 20 14 17 20 -4 6 -13 8 -20 5 -19 -7 -25
30 -18 107 l6 67 -176 0 c-206 0 -180 20 -200 -160 l-12 -115 -32 -3 c-29 -3
-32 -1 -27 22 4 26 -4 31 -53 29 -9 -1 -13 16 -13 51 0 82 -12 191 -21 196 -5
3 -8 28 -6 54 2 42 -1 51 -26 69 -31 24 -58 16 -67 -21 l-5 -20 -45 21 c-31
15 -46 29 -48 45 -3 19 1 22 27 22 26 0 31 4 31 25 0 14 4 25 8 25 4 0 9 17
10 38 1 20 3 57 4 82 3 44 2 45 -37 58 -62 20 -117 24 -144 10z m247 -393 c-3
-3 -9 2 -12 12 -6 14 -5 15 5 6 7 -7 10 -15 7 -18z m-308 -30 c0 -5 -5 -3 -10
5 -5 8 -10 20 -10 25 0 6 5 3 10 -5 5 -8 10 -19 10 -25z m287 -67 c-2 -13 -4
-5 -4 17 -1 22 1 32 4 23 2 -10 2 -28 0 -40z m-237 -73 c0 -5 -5 -3 -10 5 -5
8 -10 20 -10 25 0 6 5 3 10 -5 5 -8 10 -19 10 -25z m227 -32 c-3 -10 -5 -2 -5
17 0 19 2 27 5 18 2 -10 2 -26 0 -35z m-15 -25 c3 -30 0 -38 -12 -38 -14 0
-15 6 -6 45 12 49 13 49 18 -7z m-166 -6 c-10 -2 -22 0 -28 6 -6 6 0 7 19 4
21 -5 23 -7 9 -10z m57 -9 c-7 -2 -19 -2 -25 0 -7 3 -2 5 12 5 14 0 19 -2 13
-5z m50 -10 c-7 -2 -19 -2 -25 0 -7 3 -2 5 12 5 14 0 19 -2 13 -5z m104 -19
c-3 -3 -12 -4 -19 -1 -8 3 -5 6 6 6 11 1 17 -2 13 -5z m-342 -30 c9 -15 12
-23 6 -20 -11 7 -35 46 -28 46 3 0 12 -12 22 -26z m362 4 c-3 -8 -6 -5 -6 6
-1 11 2 17 5 13 3 -3 4 -12 1 -19z"/>
</g>
</svg>
